<svg width="36" height="36" viewBox="0 0 36 36" fill="none" xmlns="http://www.w3.org/2000/svg">
<path d="M21.1915 17.1642C20.9992 17.1642 20.8111 17.2212 20.6512 17.3281C20.4913 17.4349 20.3666 17.5868 20.293 17.7645C20.2194 17.9422 20.2002 18.1378 20.2377 18.3264C20.2752 18.5151 20.3678 18.6883 20.5038 18.8244C20.6399 18.9604 20.8131 19.053 21.0018 19.0905C21.1904 19.128 21.386 19.1088 21.5637 19.0352C21.7414 18.9616 21.8933 18.8369 22.0001 18.677C22.107 18.5171 22.164 18.329 22.164 18.1367C22.164 17.8788 22.0615 17.6314 21.8792 17.449C21.6968 17.2666 21.4494 17.1642 21.1915 17.1642ZM15.7748 18.1367C15.7748 17.9443 15.7178 17.7563 15.6109 17.5963C15.504 17.4364 15.3521 17.3117 15.1743 17.2381C14.9966 17.1646 14.801 17.1453 14.6123 17.1829C14.4236 17.2205 14.2504 17.3132 14.1144 17.4493C13.9784 17.5854 13.8859 17.7588 13.8484 17.9475C13.811 18.1362 13.8304 18.3317 13.9041 18.5094C13.9778 18.6871 14.1026 18.8389 14.2627 18.9457C14.4227 19.0525 14.6108 19.1094 14.8032 19.1092C15.061 19.109 15.3081 19.0064 15.4903 18.8241C15.6725 18.6417 15.7748 18.3945 15.7748 18.1367ZM20.0773 20.8367C19.8122 21.1219 19.4911 21.3494 19.1342 21.5052C18.7773 21.661 18.3922 21.7417 18.0028 21.7422C17.6134 21.7428 17.228 21.6632 16.8707 21.5084C16.5133 21.3536 16.1917 21.127 15.9257 20.8425C15.7869 20.6705 15.5854 20.5606 15.3656 20.5371C15.1458 20.5135 14.9257 20.5783 14.7536 20.7171C14.5815 20.8559 14.4717 21.0574 14.4481 21.2772C14.4246 21.497 14.4894 21.7171 14.6282 21.8892C15.0502 22.367 15.569 22.7496 16.1501 23.0117C16.7313 23.2737 17.3615 23.4093 17.999 23.4093C18.6365 23.4093 19.2667 23.2737 19.8479 23.0117C20.429 22.7496 20.9478 22.367 21.3698 21.8892C21.5031 21.7173 21.5639 21.5001 21.5392 21.284C21.5146 21.0678 21.4063 20.8699 21.2377 20.7325C21.0691 20.5951 20.8534 20.5291 20.6367 20.5485C20.4201 20.568 20.2196 20.6714 20.0782 20.8367H20.0773ZM17.9998 8.41919C16.1044 8.41919 14.2516 8.98124 12.6756 10.0343C11.0997 11.0873 9.87134 12.584 9.146 14.3351C8.42066 16.0863 8.23087 18.0132 8.60065 19.8721C8.97042 21.7311 9.88315 23.4387 11.2234 24.779C12.5637 26.1192 14.2712 27.0319 16.1302 27.4017C17.9892 27.7715 19.9161 27.5817 21.6672 26.8564C23.4184 26.131 24.9151 24.9027 25.9681 23.3267C27.0211 21.7508 27.5832 19.8979 27.5832 18.0025C27.5803 15.4617 26.5697 13.0259 24.7731 11.2292C22.9765 9.43265 20.5406 8.42206 17.9998 8.41919ZM17.9998 25.9192C16.4341 25.9192 14.9035 25.4549 13.6016 24.585C12.2997 23.7151 11.285 22.4787 10.6858 21.0321C10.0866 19.5855 9.92983 17.9937 10.2353 16.4581C10.5408 14.9224 11.2947 13.5118 12.4019 12.4046C13.5091 11.2974 14.9197 10.5434 16.4554 10.238C17.9911 9.93251 19.5828 10.0893 21.0294 10.6885C22.476 11.2877 23.7124 12.3024 24.5823 13.6043C25.4522 14.9061 25.9165 16.4368 25.9165 18.0025C25.9143 20.1015 25.0795 22.1138 23.5953 23.598C22.1111 25.0822 20.0988 25.917 17.9998 25.9192Z" fill="#737373"/>
</svg>
