<svg width="24" height="24" viewBox="0 0 24 24" fill="none" xmlns="http://www.w3.org/2000/svg">
<path d="M13.173 13.164L14.664 9.335L10.834 10.825L13.173 13.164ZM12.001 0.5C9.7265 0.5 7.50309 1.17446 5.61192 2.4381C3.72076 3.70174 2.24677 5.49779 1.37637 7.59914C0.505959 9.70049 0.278221 12.0128 0.721951 14.2435C1.16568 16.4743 2.26095 18.5234 3.86925 20.1317C5.47756 21.74 7.52666 22.8353 9.75744 23.279C11.9882 23.7228 14.3005 23.495 16.4018 22.6246C18.5032 21.7542 20.2992 20.2802 21.5629 18.3891C22.8265 16.4979 23.501 14.2745 23.501 12C23.4975 8.95107 22.2848 6.028 20.1289 3.87207C17.973 1.71615 15.0499 0.503441 12.001 0.5ZM17.351 7.943L14.873 14.312C14.8226 14.4412 14.7459 14.5585 14.6478 14.6564C14.5497 14.7544 14.4322 14.8309 14.303 14.881L7.94298 17.351C7.76218 17.4211 7.56488 17.4372 7.37511 17.3972C7.18535 17.3572 7.0113 17.2629 6.87417 17.1258C6.73703 16.9887 6.64274 16.8146 6.60275 16.6249C6.56277 16.4351 6.57883 16.2378 6.64898 16.057L9.12898 9.688C9.17935 9.55882 9.25604 9.44153 9.35417 9.34358C9.45229 9.24562 9.56972 9.16915 9.69898 9.119L16.058 6.649C16.2388 6.57885 16.4361 6.56279 16.6259 6.60277C16.8156 6.64275 16.9897 6.73705 17.1268 6.87418C17.2639 7.01132 17.3582 7.18536 17.3982 7.37513C17.4382 7.5649 17.4211 7.7622 17.351 7.943Z" fill="black"/>
</svg>
