<svg width="24" height="22" viewBox="0 0 24 22" fill="none" xmlns="http://www.w3.org/2000/svg">
<path d="M16.792 2.90397C18.1065 2.97664 19.3389 3.56587 20.2208 4.54328C21.1027 5.52068 21.5625 6.80701 21.5 8.12197C21.5 11.194 18.848 13.081 16.303 15.344C13.791 17.587 12.438 18.813 12 19.096C11.523 18.787 9.85704 17.273 7.69704 15.344C5.14104 13.072 2.50004 11.167 2.50004 8.12197C2.43761 6.80701 2.89743 5.52068 3.7793 4.54328C4.66117 3.56587 5.89361 2.97664 7.20804 2.90397C7.93619 2.8819 8.6576 3.04915 9.30176 3.38937C9.94591 3.72959 10.4908 4.23113 10.883 4.84497C11.723 6.01997 11.863 6.60797 12.003 6.60797C12.143 6.60797 12.281 6.01997 13.113 4.84197C13.5031 4.22529 14.0482 3.72176 14.6937 3.38169C15.3393 3.04161 16.0629 2.87688 16.792 2.90397ZM16.792 0.903973C15.884 0.874899 14.981 1.05106 14.1505 1.41932C13.3199 1.78759 12.5832 2.33848 11.995 3.03097C11.4074 2.3405 10.6722 1.79088 9.84359 1.42272C9.01502 1.05457 8.11433 0.877286 7.20804 0.903973C5.36291 0.976124 3.62142 1.77596 2.36438 3.12857C1.10734 4.48118 0.437038 6.27651 0.500043 8.12197C0.500043 11.732 3.05004 13.949 5.51504 16.092C5.79804 16.338 6.08404 16.586 6.36804 16.839L7.39504 17.757C8.51508 18.8227 9.68931 19.8301 10.913 20.775C11.2368 20.9846 11.6143 21.0962 12 21.0962C12.3858 21.0962 12.7633 20.9846 13.087 20.775C14.3497 19.8012 15.5601 18.7614 16.713 17.66L17.635 16.836C17.928 16.576 18.225 16.317 18.52 16.062C20.854 14.037 23.5 11.742 23.5 8.12197C23.563 6.27651 22.8927 4.48118 21.6357 3.12857C20.3787 1.77596 18.6372 0.976124 16.792 0.903973Z" fill="black"/>
</svg>
